# xmcd
#
# Track frame offsets:
#	150
#	15086
#	33390
#	47284
#	65239
#	86648
#
# Disc length: 1455 seconds
#
# Revision: 1
# Processed by: cddbd v1.5.2PL0 Copyright (c) Steve Scherf et al.
# Submitted via: audiograbber 1.83.01
#
DISCID=3e05ad06
DTITLE=The Whiskey Saints - Bootleg E.P.
DYEAR=2007
DGENRE=Country Rock
TTITLE0=If I Take You Home
TTITLE1=Under Los Angeles
TTITLE2=Leap Year
TTITLE3=I Need Some Luck
TTITLE4=We Could Be Like New
TTITLE5=With The Lights On
EXTD=
EXTT0=
EXTT1=
EXTT2=
EXTT3=
EXTT4=
EXTT5=
PLAYORDER=
